<svg xmlns="http://www.w3.org/2000/svg" style="display:none">
  <symbol id="ai:tabler:sun" viewBox="0 0 24 24">
    <path fill="none" stroke="currentColor" stroke-linecap="round" stroke-linejoin="round" stroke-width="2" d="M8 12a4 4 0 1 0 8 0a4 4 0 1 0-8 0m-5 0h1m8-9v1m8 8h1m-9 8v1M5.6 5.6l.7.7m12.1-.7l-.7.7m0 11.4l.7.7m-12.1-.7l-.7.7"/>
  </symbol>
  <symbol id="ai:tabler:menu" viewBox="0 0 24 24">
    <path fill="none" stroke="currentColor" stroke-linecap="round" stroke-linejoin="round" stroke-width="2" d="M4 8h16M4 16h16"/>
  </symbol>
  <symbol id="ai:tabler:brand-github" viewBox="0 0 24 24">
    <path fill="none" stroke="currentColor" stroke-linecap="round" stroke-linejoin="round" stroke-width="2" d="M9 19c-4.3 1.4-4.3-2.5-6-3m12 5v-3.5c0-1 .1-1.4-.5-2c2.8-.3 5.5-1.4 5.5-6a4.6 4.6 0 0 0-1.3-3.2a4.2 4.2 0 0 0-.1-3.2s-1.1-.3-3.5 1.3a12.3 12.3 0 0 0-6.2 0C6.5 2.8 5.4 3.1 5.4 3.1a4.2 4.2 0 0 0-.1 3.2A4.6 4.6 0 0 0 4 9.5c0 4.6 2.7 5.7 5.5 6c-.6.6-.6 1.2-.5 2V21"/>
  </symbol>
  <symbol id="ai:tabler:download" viewBox="0 0 24 24">
    <path fill="none" stroke="currentColor" stroke-linecap="round" stroke-linejoin="round" stroke-width="2" d="M4 17v2a2 2 0 0 0 2 2h12a2 2 0 0 0 2-2v-2M7 11l5 5l5-5m-5-7v12"/>
  </symbol>
  <symbol id="ai:tabler:info-square" viewBox="0 0 24 24">
    <g fill="none" stroke="currentColor" stroke-linecap="round" stroke-linejoin="round" stroke-width="2">
      <path d="M12 9h.01M3 5a2 2 0 0 1 2-2h14a2 2 0 0 1 2 2v14a2 2 0 0 1-2 2H5a2 2 0 0 1-2-2z"/>
      <path d="M11 12h1v4h1"/>
    </g>
  </symbol>
  <symbol id="ai:tabler:package" viewBox="0 0 24 24">
    <path fill="none" stroke="currentColor" stroke-linecap="round" stroke-linejoin="round" stroke-width="2" d="m12 3l8 4.5v9L12 21l-8-4.5v-9zm0 9l8-4.5M12 12v9m0-9L4 7.5m12-2.25l-8 4.5"/>
  </symbol>
  <symbol id="ai:tabler:refresh" viewBox="0 0 24 24">
    <path fill="none" stroke="currentColor" stroke-linecap="round" stroke-linejoin="round" stroke-width="2" d="M20 11A8.1 8.1 0 0 0 4.5 9M4 5v4h4m-4 4a8.1 8.1 0 0 0 15.5 2m.5 4v-4h-4"/>
  </symbol>
  <symbol id="ai:tabler:apps" viewBox="0 0 24 24">
    <path fill="none" stroke="currentColor" stroke-linecap="round" stroke-linejoin="round" stroke-width="2" d="M4 5a1 1 0 0 1 1-1h4a1 1 0 0 1 1 1v4a1 1 0 0 1-1 1H5a1 1 0 0 1-1-1zm0 10a1 1 0 0 1 1-1h4a1 1 0 0 1 1 1v4a1 1 0 0 1-1 1H5a1 1 0 0 1-1-1zm10 0a1 1 0 0 1 1-1h4a1 1 0 0 1 1 1v4a1 1 0 0 1-1 1h-4a1 1 0 0 1-1-1zm0-8h6m-3-3v6"/>
  </symbol>
  <symbol id="ai:tabler:rocket" viewBox="0 0 24 24">
    <g fill="none" stroke="currentColor" stroke-linecap="round" stroke-linejoin="round" stroke-width="2">
      <path d="M4 13a8 8 0 0 1 7 7a6 6 0 0 0 3-5a9 9 0 0 0 6-8a3 3 0 0 0-3-3a9 9 0 0 0-8 6a6 6 0 0 0-5 3"/>
      <path d="M7 14a6 6 0 0 0-3 6a6 6 0 0 0 6-3m4-8a1 1 0 1 0 2 0a1 1 0 1 0-2 0"/>
    </g>
  </symbol>
  <symbol id="ai:tabler:heart-handshake" viewBox="0 0 24 24">
    <g fill="none" stroke="currentColor" stroke-linecap="round" stroke-linejoin="round" stroke-width="2">
      <path d="M19.5 12.572L12 20l-7.5-7.428A5 5 0 1 1 12 6.006a5 5 0 1 1 7.5 6.572"/>
      <path d="M12 6L8.707 9.293a1 1 0 0 0 0 1.414l.543.543c.69.69 1.81.69 2.5 0l1-1a3.18 3.18 0 0 1 4.5 0l2.25 2.25m-7 3l2 2M15 13l2 2"/>
    </g>
  </symbol>
  <symbol id="ai:tabler:heart" viewBox="0 0 24 24">
    <path fill="none" stroke="currentColor" stroke-linecap="round" stroke-linejoin="round" stroke-width="2" d="M19.5 12.572L12 20l-7.5-7.428A5 5 0 1 1 12 6.006a5 5 0 1 1 7.5 6.572"/>
  </symbol>
  <symbol id="ai:tabler:server" viewBox="0 0 24 24">
    <path fill="none" stroke="currentColor" stroke-linecap="round" stroke-linejoin="round" stroke-width="2" d="M3 7a3 3 0 0 1 3-3h12a3 3 0 0 1 3 3v2a3 3 0 0 1-3 3H6a3 3 0 0 1-3-3m0 6a3 3 0 0 1 3-3h12a3 3 0 0 1 3 3v2a3 3 0 0 1-3 3H6a3 3 0 0 1-3-3zm4-7v.01M7 16v.01"/>
  </symbol>
  <symbol id="ai:tabler:code" viewBox="0 0 24 24">
    <path fill="none" stroke="currentColor" stroke-linecap="round" stroke-linejoin="round" stroke-width="2" d="m7 8l-4 4l4 4m10-8l4 4l-4 4M14 4l-4 16"/>
  </symbol>
  <symbol id="ai:tabler:device-desktop" viewBox="0 0 24 24">
    <path fill="none" stroke="currentColor" stroke-linecap="round" stroke-linejoin="round" stroke-width="2" d="M3 5a1 1 0 0 1 1-1h16a1 1 0 0 1 1 1v10a1 1 0 0 1-1 1H4a1 1 0 0 1-1-1zm4 15h10m-8-4v4m6-4v4"/>
  </symbol>
  <symbol id="ai:tabler:brand-x" viewBox="0 0 24 24">
    <path fill="none" stroke="currentColor" stroke-linecap="round" stroke-linejoin="round" stroke-width="2" d="m4 4l11.733 16H20L8.267 4zm0 16l6.768-6.768m2.46-2.46L20 4"/>
  </symbol>
  <symbol id="ai:tabler:brand-discord" viewBox="0 0 24 24">
    <g fill="none" stroke="currentColor" stroke-linecap="round" stroke-linejoin="round" stroke-width="2">
      <path d="M8 12a1 1 0 1 0 2 0a1 1 0 0 0-2 0m6 0a1 1 0 1 0 2 0a1 1 0 0 0-2 0"/>
      <path d="M15.5 17c0 1 1.5 3 2 3c1.5 0 2.833-1.667 3.5-3c.667-1.667.5-5.833-1.5-11.5c-1.457-1.015-3-1.34-4.5-1.5l-.972 1.923a11.9 11.9 0 0 0-4.053 0L9 4c-1.5.16-3.043.485-4.5 1.5c-2 5.667-2.167 9.833-1.5 11.5c.667 1.333 2 3 3.5 3c.5 0 2-2 2-3"/>
      <path d="M7 16.5c3.5 1 6.5 1 10 0"/>
    </g>
  </symbol>
  <symbol id="ai:tabler:brand-bluesky" viewBox="0 0 24 24">
    <path fill="none" stroke="currentColor" stroke-linecap="round" stroke-linejoin="round" stroke-width="2" d="M6.335 5.144C4.681 3.945 2 3.017 2 5.97c0 .59.35 4.953.556 5.661C3.269 14.094 5.686 14.381 8 14c-4.045.665-4.889 3.208-2.667 5.41C6.363 20.428 7.246 21 8 21c2 0 3.134-2.769 3.5-3.5q.5-1 .5-1.5q0 .5.5 1.5c.366.731 1.5 3.5 3.5 3.5c.754 0 1.637-.571 2.667-1.59C20.889 17.207 20.045 14.664 16 14c2.314.38 4.73.094 5.444-2.369c.206-.708.556-5.072.556-5.661c0-2.953-2.68-2.025-4.335-.826C15.372 6.806 12.905 10.192 12 12c-.905-1.808-3.372-5.194-5.665-6.856"/>
  </symbol>
  <symbol id="ai:tabler:brand-mastodon" viewBox="0 0 24 24">
    <g fill="none" stroke="currentColor" stroke-linecap="round" stroke-linejoin="round" stroke-width="2">
      <path d="M18.648 15.254C16.832 17.017 12 16.88 12 16.88a18.3 18.3 0 0 1-3.288-.256q1.69 2.977 8.982 2.475c-1.945 2.013-13.598 5.257-13.668-7.636L4 10.309c0-3.036.023-4.115 1.352-5.633C7.023 2.766 12 3.01 12 3.01s4.977-.243 6.648 1.667C19.977 6.195 20 7.274 20 10.31s-.456 4.074-1.352 4.944"/>
      <path d="M12 11.204V8.278C12 7.02 11.105 6 10 6S8 7.02 8 8.278V13m4-4.722C12 7.02 12.895 6 14 6s2 1.02 2 2.278V13"/>
    </g>
  </symbol>
  <symbol id="ai:tabler:brand-reddit" viewBox="0 0 24 24">
    <g fill="none" stroke="currentColor" stroke-linecap="round" stroke-linejoin="round" stroke-width="2">
      <path d="M12 8c2.648 0 5.028.826 6.675 2.14a2.5 2.5 0 0 1 2.326 4.36c0 3.59-4.03 6.5-9 6.5c-4.875 0-8.845-2.8-9-6.294l-1-.206a2.5 2.5 0 0 1 2.326-4.36C5.973 8.827 8.353 8 11.001 8zm0 0l1-5l6 1"/>
      <path d="M18 4a1 1 0 1 0 2 0a1 1 0 1 0-2 0"/>
      <path fill="currentColor" d="M8.5 13a.5.5 0 1 0 1 0a.5.5 0 1 0-1 0m6 0a.5.5 0 1 0 1 0a.5.5 0 1 0-1 0"/>
      <path d="M10 17q1 .5 2 .5c1 0 1.333-.167 2-.5"/>
    </g>
  </symbol>
  <symbol id="ai:tabler:brand-patreon" viewBox="0 0 24 24">
    <path fill="none" stroke="currentColor" stroke-linecap="round" stroke-linejoin="round" stroke-width="2" d="M20 8.408c-.003-2.299-1.746-4.182-3.79-4.862c-2.54-.844-5.888-.722-8.312.453c-2.939 1.425-3.862 4.545-3.896 7.656c-.028 2.559.22 9.297 3.92 9.345c2.75.036 3.159-3.603 4.43-5.356c.906-1.247 2.071-1.599 3.506-1.963c2.465-.627 4.146-2.626 4.142-5.273"/>
  </symbol>
  <symbol id="ai:tabler:mail-opened" viewBox="0 0 24 24">
    <g fill="none" stroke="currentColor" stroke-linecap="round" stroke-linejoin="round" stroke-width="2">
      <path d="m3 9l9 6l9-6l-9-6z"/>
      <path d="M21 9v10a2 2 0 0 1-2 2H5a2 2 0 0 1-2-2V9m0 10l6-6m6 0l6 6"/>
    </g>
  </symbol>
</svg>
